<?xml version="1.0" encoding="UTF-8"?>
<svg version="1.1" xmlns="http://www.w3.org/2000/svg" width="600" height="566">
<path d="M0 0 C1.57875303 -0.00435978 3.15750396 -0.00954708 4.73625183 -0.01548767 C8.98238804 -0.02875448 13.22843458 -0.02947012 17.47458744 -0.02692437 C21.0400464 -0.02584599 24.60548786 -0.03076009 28.17094302 -0.03552979 C36.59460715 -0.04658291 45.01822668 -0.04708646 53.44189453 -0.04101562 C62.08401057 -0.03498235 70.72596353 -0.04728013 79.36805177 -0.06858569 C86.83098444 -0.08629647 94.29386566 -0.09218813 101.75681853 -0.08894795 C106.19500279 -0.08714961 110.63307076 -0.08962406 115.07123566 -0.10366249 C119.25095255 -0.1163914 123.43041844 -0.11415723 127.61013222 -0.1012516 C129.12806349 -0.09891843 130.64601329 -0.10150045 132.16392326 -0.10987473 C168.62494969 -0.29623559 200.63251211 13.45328695 226.73339844 38.8996582 C240.29262831 52.5376572 252.39149251 70.73345186 257.23339844 89.5246582 C257.97711786 92.38602081 258.72267517 95.23804589 259.55371094 98.07543945 C259.81925781 98.98680664 260.08480469 99.89817383 260.35839844 100.8371582 C260.59816406 101.64282227 260.83792969 102.44848633 261.08496094 103.27856445 C263.15753191 112.85484117 262.8936273 122.67494885 262.91040039 132.42260742 C262.91667778 134.0369328 262.92332567 135.65125677 262.93031311 137.26557922 C262.95121002 142.53682476 262.96170422 147.80807011 262.97167969 153.0793457 C262.97573307 154.90591572 262.97985015 156.7324856 262.98402977 158.55905533 C263.00305246 167.14795364 263.01728774 175.73684353 263.02564174 184.32575881 C263.03539353 194.18446846 263.06167151 204.04295237 263.10214263 213.9015826 C263.13247664 221.55808619 263.14712698 229.21452571 263.15042275 236.87108815 C263.15275414 241.42682472 263.16146133 245.98231939 263.18688393 250.53799057 C263.3719766 285.53513312 259.42566061 315.51354429 237.87011719 344.3137207 C235.76075107 347.05559467 235.76075107 347.05559467 234.67480469 349.46606445 C233.47863542 351.76409918 231.98867579 352.9588419 229.98339844 354.5871582 C226.62721664 357.40829652 223.8444697 360.33778131 221.15527344 363.79418945 C219.49981511 365.51786722 217.88262407 366.25616637 215.73339844 367.2746582 C213.71663264 368.92099763 211.71600269 370.58733543 209.73339844 372.2746582 C208.74339844 372.9346582 207.75339844 373.5946582 206.73339844 374.2746582 C206.26933594 374.77223633 205.80527344 375.26981445 205.32714844 375.7824707 C203.40634013 377.58087456 201.6991617 378.24501129 199.23339844 379.1496582 C195.51416742 380.56393763 191.9003414 382.08879249 188.29589844 383.7746582 C169.41223245 392.37252847 150.58463739 394.42723174 130.01782227 394.41992188 C128.33166937 394.42291783 126.64551717 394.42632136 124.95936584 394.43009949 C120.40178635 394.43889484 115.84422566 394.44127559 111.2866385 394.44191527 C108.43703343 394.4426278 105.5874331 394.44476586 102.73782921 394.44741249 C92.79111809 394.45664797 82.84442034 394.46074924 72.89770508 394.45996094 C63.63235714 394.45935918 54.36706723 394.46993475 45.10173398 394.4857046 C37.13634143 394.49877797 29.17096788 394.50414499 21.20556468 394.50350553 C16.45248569 394.50325067 11.69945843 394.50609554 6.94639015 394.51668358 C2.48037833 394.52636223 -1.98553223 394.52644535 -6.45154762 394.51916695 C-8.08900729 394.51812113 -9.72647327 394.52048381 -11.36392212 394.5265274 C-13.60135091 394.53425017 -15.83843012 394.52960097 -18.07585144 394.52189636 C-19.32701846 394.52244113 -20.57818548 394.5229859 -21.86726665 394.52354717 C-25.32574795 394.27032768 -28.03738242 393.50007654 -31.26660156 392.2746582 C-32.5957572 391.93961605 -33.9302698 391.62468213 -35.27050781 391.3371582 C-48.19477506 388.36932128 -59.49616073 383.30422917 -71.26660156 377.2746582 C-72.59921743 376.60655854 -73.93232821 375.9394415 -75.26660156 375.2746582 C-75.26660156 374.6146582 -75.26660156 373.9546582 -75.26660156 373.2746582 C-76.25660156 373.2746582 -77.24660156 373.2746582 -78.26660156 373.2746582 C-78.26660156 372.6146582 -78.26660156 371.9546582 -78.26660156 371.2746582 C-79.13478516 370.86860352 -79.13478516 370.86860352 -80.02050781 370.4543457 C-83.74837534 368.49640484 -86.94051566 365.83935095 -90.26660156 363.2746582 C-91.11222656 362.6559082 -91.95785156 362.0371582 -92.82910156 361.3996582 C-101.07030912 354.21501572 -108.64691601 344.64080079 -114.26660156 335.2746582 C-114.26660156 334.6146582 -114.26660156 333.9546582 -114.26660156 333.2746582 C-114.92660156 332.9446582 -115.58660156 332.6146582 -116.26660156 332.2746582 C-118.00243696 329.32549469 -119.37784262 326.18455288 -120.82910156 323.0871582 C-121.24095703 322.23573242 -121.6528125 321.38430664 -122.07714844 320.50708008 C-124.18874521 316.03851276 -125.56719733 312.20192173 -126.26660156 307.2746582 C-126.92660156 306.9446582 -127.58660156 306.6146582 -128.26660156 306.2746582 C-128.88697114 303.70116335 -129.3929642 301.19244437 -129.82910156 298.5871582 C-129.95478516 297.87881836 -130.08046875 297.17047852 -130.20996094 296.44067383 C-130.57217545 294.38686064 -130.92233464 292.33155303 -131.26660156 290.2746582 C-131.51929054 288.97944496 -131.51929054 288.97944496 -131.77708435 287.6580658 C-132.34085234 283.76145738 -132.43418183 279.93382094 -132.45605469 276.00610352 C-132.46434799 275.19889359 -132.4726413 274.39168365 -132.48118591 273.56001282 C-132.49851204 271.81674346 -132.51369875 270.07345179 -132.52696228 268.33014679 C-132.54807622 265.57345155 -132.57508784 262.81686934 -132.6036377 260.0602417 C-132.67329045 253.21951974 -132.73297158 246.37871773 -132.79266357 239.53790283 C-132.84354703 233.74584727 -132.89833118 227.9538551 -132.95848083 222.16188812 C-132.98509068 219.44194914 -133.00587698 216.72200426 -133.02648926 214.00201416 C-133.04308545 212.3432181 -133.05995669 210.68442476 -133.07714844 209.02563477 C-133.08133286 208.26614029 -133.08551727 207.50664581 -133.08982849 206.72413635 C-133.06799188 202.87196768 -133.06799188 202.87196768 -134.26660156 199.2746582 C-133.60660156 199.2746582 -132.94660156 199.2746582 -132.26660156 199.2746582 C-132.29689453 198.14898437 -132.3271875 197.02331055 -132.35839844 195.86352539 C-134.48613746 115.93326589 -134.48613746 115.93326589 -130.26660156 103.2746582 C-130.92660156 102.9446582 -131.58660156 102.6146582 -132.26660156 102.2746582 C-131.27660156 101.7796582 -131.27660156 101.7796582 -130.26660156 101.2746582 C-129.75345162 99.33477346 -129.3320123 97.37035838 -128.95410156 95.3996582 C-127.50913275 88.8114588 -125.27101926 83.2834936 -122.26660156 77.2746582 C-121.68120145 76.02562478 -121.09800519 74.77555692 -120.51660156 73.5246582 C-114.29099963 60.34272731 -106.38100778 48.83074155 -96.26660156 38.2746582 C-95.36361328 37.32719727 -95.36361328 37.32719727 -94.44238281 36.3605957 C-79.13624179 21.68648564 -60.38802574 11.17111956 -40.20410156 4.9621582 C-39.42607178 4.71965332 -38.64804199 4.47714844 -37.84643555 4.22729492 C-25.42641588 0.59885932 -12.85642347 -0.02381963 0 0 Z " fill="#C67EF4" transform="translate(256.2666015625,71.725341796875)"/>
<path d="M0 0 C4.41453494 2.49130344 7.98180416 5.82300201 11.51953125 9.421875 C12.48890625 8.535 13.45828125 7.648125 14.45703125 6.734375 C24.15967954 -1.5878152 32.88425328 -3.51805003 45.51953125 -2.578125 C54.98510934 -0.58663455 61.65622077 4.39023399 67.39453125 12.046875 C71.50092604 18.56879614 71.50092604 18.56879614 71.5390625 22.3671875 C71.58480884 24.62123438 71.69968553 26.31433681 72.51953125 28.421875 C74.60913554 29.81952699 76.68488642 30.58458856 79.04296875 31.44921875 C86.71371897 34.46186355 91.75877482 40.23571622 95.51953125 47.421875 C99.4915743 57.28396819 98.43607961 67.90219194 94.39453125 77.54296875 C94.10578125 78.16300781 93.81703125 78.78304687 93.51953125 79.421875 C93.96683594 79.87175781 94.41414062 80.32164062 94.875 80.78515625 C104.05493241 90.55229116 107.01580488 101.00125676 106.80078125 114.109375 C106.56788102 119.48471241 105.13340735 123.73581422 102.51953125 128.421875 C102.16890625 129.11410156 101.81828125 129.80632812 101.45703125 130.51953125 C98.29441647 136.21882663 93.74238086 140.56373855 88.51953125 144.421875 C87.85953125 144.421875 87.19953125 144.421875 86.51953125 144.421875 C86.5659375 145.06511719 86.61234375 145.70835937 86.66015625 146.37109375 C87.11482259 157.7539903 84.35643293 167.59245423 76.80078125 176.26171875 C67.25521416 185.30058622 56.99006809 187.08820944 44.3671875 186.796875 C33.07373296 186.18010744 23.49119875 180.82912296 15.859375 172.640625 C14.70039091 171.271797 13.60125503 169.85254193 12.51953125 168.421875 C11.83890625 169.123125 11.15828125 169.824375 10.45703125 170.546875 C-0.6943808 181.57369027 -12.18543893 186.89486416 -27.96679688 186.85351562 C-38.09134515 186.58083014 -46.199602 182.72775847 -53.50390625 175.7421875 C-59.93176435 168.19644104 -62.63328026 160.92551768 -62.54296875 151.171875 C-62.53394531 149.90859375 -62.52492187 148.6453125 -62.515625 147.34375 C-62.50402344 146.37953125 -62.49242187 145.4153125 -62.48046875 144.421875 C-63.22425781 144.16148437 -63.96804687 143.90109375 -64.734375 143.6328125 C-73.61049667 139.71873324 -77.84435412 130.91453028 -81.48046875 122.421875 C-84.68857283 112.79756276 -83.51178085 99.99927151 -79.125 91.0234375 C-76.39084561 86.69814814 -73.12295601 83.00109325 -69.48046875 79.421875 C-69.75761719 78.67421875 -70.03476563 77.9265625 -70.3203125 77.15625 C-70.68253906 76.17140625 -71.04476562 75.1865625 -71.41796875 74.171875 C-71.77761719 73.19734375 -72.13726562 72.2228125 -72.5078125 71.21875 C-75.39942194 62.90392125 -75.58449883 55.08458237 -71.9296875 46.94140625 C-67.15204324 38.63525923 -60.60053006 32.54969386 -51.48046875 29.421875 C-50.49046875 29.421875 -49.50046875 29.421875 -48.48046875 29.421875 C-48.46628906 28.80441406 -48.45210938 28.18695313 -48.4375 27.55078125 C-48.05197422 20.70509367 -46.25799245 16.09947049 -42.48046875 10.421875 C-41.92359375 9.535 -41.36671875 8.648125 -40.79296875 7.734375 C-29.86047491 -3.19811884 -14.18810762 -5.87094109 0 0 Z " fill="#1A112A" transform="translate(309.48046875,175.578125)"/>
<path d="M0 0 C4.58669856 2.65990921 7.32094167 6.07737341 9.9375 10.6875 C11.747232 17.76190689 10.61416059 22.8984854 7.625 29.375 C7.20513054 32.08663778 7.20513054 32.08663778 7.625 34.375 C9.56077375 36.70800503 9.56077375 36.70800503 13 36.875 C16.87860299 36.76031499 16.87860299 36.76031499 19.0625 33.375 C19.578125 32.385 20.09375 31.395 20.625 30.375 C25.86663109 30.74940222 29.17726839 32.48177498 32.625 36.375 C36.6421579 41.95438597 37.709868 47.60800157 36.625 54.375 C35.27744402 58.2007443 33.44886343 61.37459441 30.875 64.5 C28.99904902 67.31392647 29.1689596 69.04550147 29.625 72.375 C31.53433068 74.45602244 33.25271167 76.08130094 35.4375 77.8125 C41.49209032 82.66900884 44.65515327 87.42225678 45.625 95.375 C46.22689598 104.40343976 44.00335223 111.50788193 38.29296875 118.5859375 C31.91643596 125.42540359 24.80902586 127.39010309 15.640625 128.03125 C13.31618017 128.28698969 13.31618017 128.28698969 10.625 130.375 C10.29161404 133.91687831 10.29161404 133.91687831 10.625 137.375 C12.50324891 139.25324891 15.66435276 138.76602397 18.1875 138.9375 C19.38503906 139.02128906 20.58257812 139.10507812 21.81640625 139.19140625 C22.74324219 139.25199219 23.67007813 139.31257812 24.625 139.375 C25.23591176 146.21721173 23.98521899 150.05926703 19.625 155.375 C14.76534841 160.59248817 10.28931861 162.98512534 3.0546875 163.58984375 C-7.13202873 163.94453443 -15.61226568 161.0871387 -23.375 154.375 C-31.14573926 145.40876239 -31.67363112 136.19044763 -31.5703125 124.78125 C-31.5674826 123.59398315 -31.56465271 122.40671631 -31.56173706 121.18347168 C-31.55059598 117.41387599 -31.52550226 113.64452315 -31.5 109.875 C-31.48996237 107.30989928 -31.48083789 104.74479481 -31.47265625 102.1796875 C-31.45067651 95.91137632 -31.4172595 89.64320552 -31.375 83.375 C-25.3513305 84.26117987 -22.49958513 85.96486667 -18.375 90.375 C-17.859375 91.303125 -17.34375 92.23125 -16.8125 93.1875 C-15.50371534 95.68265562 -15.50371534 95.68265562 -12.375 96.3125 C-9.19032057 96.66492684 -9.19032057 96.66492684 -6.375 94.375 C-5.61467496 91.33369984 -5.46894763 90.28502704 -6.375 87.375 C-12.70873454 77.82979442 -20.85477797 73.85437011 -31.375 70.375 C-31.47679976 62.70706581 -31.54663338 55.03930729 -31.59472656 47.37084961 C-31.61478535 44.76466357 -31.64203911 42.15852221 -31.67675781 39.55249023 C-31.7255263 35.79659974 -31.74802717 32.0413067 -31.765625 28.28515625 C-31.78627014 27.12854996 -31.80691528 25.97194366 -31.82818604 24.7802887 C-31.83029228 17.10848112 -31.04538036 10.31142183 -25.62457275 4.49769592 C-18.51980019 -2.07276001 -9.02168177 -4.10854578 0 0 Z " fill="#C57DF2" transform="translate(358.375,186.625)"/>
<path d="M0 0 C5.87111028 2.67188252 9.03253253 5.547597 12.234375 11.125 C13.2771513 14.25332889 13.35514345 16.41689087 13.34790039 19.69799805 C13.34778709 21.40943245 13.34778709 21.40943245 13.34767151 23.15544128 C13.34251022 24.38676285 13.33734894 25.61808441 13.33203125 26.88671875 C13.3306163 28.14764847 13.32920135 29.40857819 13.32774353 30.7077179 C13.32309075 34.05651709 13.31410842 37.40524811 13.30303955 40.75402832 C13.29280187 44.17260143 13.28824086 47.59118159 13.28320312 51.00976562 C13.27216599 57.71486261 13.25542186 64.41992737 13.234375 71.125 C12.26508057 71.52984619 11.29578613 71.93469238 10.29711914 72.35180664 C9.01700267 72.89188326 7.73697818 73.43217795 6.45703125 73.97265625 C5.81914673 74.23840454 5.18126221 74.50415283 4.52404785 74.7779541 C-2.74983531 77.8609088 -7.98079468 82.07292299 -11.765625 89.125 C-12.3215495 92.18258474 -12.22531627 93.35884788 -10.640625 96 C-8.72517268 97.38332187 -8.72517268 97.38332187 -5.9375 97.00390625 C-1.96848101 95.9041165 -0.71334591 94.35567398 1.859375 91.1875 C6.58175872 85.42950581 6.58175872 85.42950581 10.234375 84.125 C11.224375 84.125 12.214375 84.125 13.234375 84.125 C13.32756577 91.38405382 13.39838615 98.64297605 13.44162369 105.90250969 C13.46238876 109.27441602 13.49049889 112.64590938 13.53613281 116.01757812 C13.58494163 119.90505653 13.60741143 123.79195735 13.625 127.6796875 C13.65596771 129.47247635 13.65596771 129.47247635 13.68756104 131.30148315 C13.68991389 140.18279266 12.20053078 148.91067185 5.98828125 155.74609375 C-3.323873 163.06723061 -13.23450074 165.06631627 -24.765625 164.125 C-31.89267913 162.36991845 -36.57576139 156.87854476 -40.765625 151.125 C-42.56439442 147.22766626 -42.82235759 144.35157764 -42.765625 140.125 C-41.85039062 140.07601562 -40.93515625 140.02703125 -39.9921875 139.9765625 C-38.20941406 139.86441406 -38.20941406 139.86441406 -36.390625 139.75 C-35.20726562 139.68039062 -34.02390625 139.61078125 -32.8046875 139.5390625 C-29.66000181 139.42282654 -29.66000181 139.42282654 -27.765625 137.125 C-27.43229167 134.625 -27.43229167 134.625 -27.765625 132.125 C-30.31803233 129.57259267 -31.72101838 129.72816907 -35.265625 129.3125 C-45.0660522 127.76506413 -51.84102552 124.17920421 -58.13671875 116.43359375 C-63.18750816 109.27528069 -63.88529275 101.77132316 -62.765625 93.125 C-60.45697082 86.36394134 -56.82757184 79.9261452 -50.578125 76.25 C-47.51348462 74.3234901 -47.51348462 74.3234901 -46.515625 70.875 C-46.82497 66.23482495 -48.35677979 64.36784326 -51.3203125 60.921875 C-54.5527916 56.9031172 -54.15495248 52.13018944 -54.11328125 47.20703125 C-53.44684058 41.29892242 -50.41489713 37.77427213 -46.328125 33.6875 C-43.43042744 31.92061124 -41.1237162 31.43738058 -37.765625 31.125 C-37.25 32.115 -36.734375 33.105 -36.203125 34.125 C-34.01510345 37.52942979 -34.01510345 37.52942979 -30.078125 37.5625 C-26.92572406 37.48790958 -26.92572406 37.48790958 -25.765625 36.125 C-25.38959123 31.54970233 -25.38959123 31.54970233 -26.75390625 27.29296875 C-28.92056105 22.65013703 -28.26360878 17.11728736 -27.765625 12.125 C-22.64154917 1.08852899 -11.50124563 -3.63881218 0 0 Z " fill="#C67EF2" transform="translate(301.765625,185.875)"/>
<path d="M0 0 C2.47193162 3.70789742 2.27499991 6.52861081 2.24291992 10.81689453 C2.24481827 11.61242233 2.24671661 12.40795013 2.24867249 13.22758484 C2.2523825 15.86276042 2.24166715 18.4976613 2.23046875 21.1328125 C2.22927623 22.96784432 2.22882394 24.80287675 2.2290802 26.63790894 C2.22751458 30.48976448 2.21922326 34.3415272 2.20581055 38.19335938 C2.18889238 43.11249377 2.18499423 48.03152543 2.18575573 52.9506855 C2.18548259 56.74440478 2.17997724 60.53810193 2.17275429 64.33181381 C2.1695872 66.14416207 2.16760483 67.95651281 2.16686058 69.76886368 C2.16467199 72.31486439 2.15587224 74.86076041 2.14526367 77.40673828 C2.14571686 78.14577896 2.14617004 78.88481964 2.14663696 79.64625549 C2.12419224 83.36378515 1.91940443 86.9713575 1.46368408 90.66259766 C1.03689422 94.20537788 1.04432201 97.43072593 1.43579102 100.99169922 C2.09300271 108.2729113 2.10040209 115.5009746 2.04459953 122.80209732 C2.02692095 125.18991967 2.0168236 127.57767272 2.00868225 129.96554565 C1.98445564 136.74337266 1.94834532 143.52110359 1.90405273 150.29882812 C1.87731215 154.4699735 1.86025009 158.6410676 1.84918404 162.81228256 C1.84297995 164.39515993 1.83298173 165.97802717 1.81910515 167.56085587 C1.79993984 169.76215515 1.7930018 171.96317946 1.78881836 174.16455078 C1.78136093 175.41551544 1.7739035 176.6664801 1.76622009 177.95535278 C1.76369969 181.17570213 1.76369969 181.17570213 4 184 C3.625 187.1875 3.625 187.1875 3 190 C3.66 190 4.32 190 5 190 C5.18175781 190.64066406 5.36351562 191.28132812 5.55078125 191.94140625 C7.06265085 197.14378831 8.78024541 202.04823976 11 207 C11.34804687 207.89460937 11.69609375 208.78921875 12.0546875 209.7109375 C14.57654235 216.12271226 17.54207218 221.76862403 21.3515625 227.5078125 C23.39316217 230.59440158 25.2034894 233.76628092 27 237 C26.01 237 25.02 237 24 237 C22.17578125 234.8828125 22.17578125 234.8828125 20.3125 232.125 C19.68988281 231.22007812 19.06726563 230.31515625 18.42578125 229.3828125 C17 227 17 227 17 225 C16.34 224.67 15.68 224.34 15 224 C13.2641646 221.05083649 11.88875894 217.90989468 10.4375 214.8125 C10.02564453 213.96107422 9.61378906 213.10964844 9.18945312 212.23242188 C7.07785635 207.76385456 5.69940423 203.92726352 5 199 C4.34 198.67 3.68 198.34 3 198 C2.37963042 195.42650515 1.87363737 192.91778617 1.4375 190.3125 C1.31181641 189.60416016 1.18613281 188.89582031 1.05664062 188.16601562 C0.69442611 186.11220244 0.34426692 184.05689482 0 182 C-0.25268898 180.70478676 -0.25268898 180.70478676 -0.51048279 179.38340759 C-1.07425077 175.48679918 -1.16758027 171.65916273 -1.18945312 167.73144531 C-1.20189308 166.52063042 -1.20189308 166.52063042 -1.21458435 165.28535461 C-1.23191048 163.54208526 -1.24709718 161.79879358 -1.26036072 160.05548859 C-1.28147466 157.29879334 -1.30848628 154.54221113 -1.33703613 151.7855835 C-1.40668888 144.94486154 -1.46637001 138.10405953 -1.52606201 131.26324463 C-1.57694547 125.47118907 -1.63172962 119.6791969 -1.69187927 113.88722992 C-1.71848912 111.16729093 -1.73927541 108.44734606 -1.7598877 105.72735596 C-1.77648389 104.0685599 -1.79335512 102.40976656 -1.81054688 100.75097656 C-1.8168235 99.61173485 -1.8168235 99.61173485 -1.82322693 98.44947815 C-1.80139031 94.59730947 -1.80139031 94.59730947 -3 91 C-2.34 91 -1.68 91 -1 91 C-1.03029297 89.87432617 -1.06058594 88.74865234 -1.09179688 87.58886719 C-3.05801746 13.74822977 -3.05801746 13.74822977 0 0 Z " fill="#C284EA" transform="translate(125,180)"/>
<path d="M0 0 C0.66721775 -0.00155999 1.33443551 -0.00311998 2.02187198 -0.00472724 C4.24417267 -0.00869674 6.46640432 -0.00556339 8.68870544 -0.00241089 C10.28736918 -0.00376671 11.8860326 -0.00554767 13.48469543 -0.00772095 C17.81719012 -0.01227333 22.14966095 -0.01051483 26.48215604 -0.00734186 C31.01885622 -0.00480737 35.55555438 -0.0071588 40.09225464 -0.00872803 C47.70920681 -0.01054635 55.32614928 -0.00815205 62.94309998 -0.00338745 C71.74771068 0.00205647 80.55229823 0.00029021 89.35690838 -0.00521386 C96.91967961 -0.00975224 104.48244387 -0.01039203 112.04521602 -0.00777519 C116.56075256 -0.00621667 121.07627821 -0.00600707 125.59181404 -0.00931168 C129.83615198 -0.01220097 134.08046006 -0.01019517 138.32479477 -0.00441742 C139.88204206 -0.0030956 141.43929187 -0.00347414 142.99653816 -0.00568008 C145.12272599 -0.00841422 147.24881826 -0.00498278 149.375 0 C150.56461617 0.00037703 151.75423235 0.00075405 152.9798975 0.0011425 C155.81803679 0.11473732 158.36604644 0.47396619 161.12400818 1.12698364 C161.12400818 1.45698364 161.12400818 1.78698364 161.12400818 2.12698364 C157.06293707 3.09719156 153.27691952 3.25033399 149.10684204 3.24723816 C148.41244957 3.24809258 147.71805709 3.24894701 147.00262243 3.24982733 C144.68262491 3.25147062 142.36270017 3.24597964 140.04270935 3.24050903 C138.3769684 3.24022689 136.71122733 3.24038543 135.04548645 3.24095154 C130.52732068 3.24123844 126.00918147 3.23535894 121.49102187 3.22837758 C116.76779932 3.22212629 112.04457615 3.22153884 107.3213501 3.22035217 C98.378979 3.2172441 89.43662013 3.20903776 80.49425441 3.19900268 C70.31295536 3.18782529 60.13165573 3.18232699 49.95035207 3.17730725 C29.00823062 3.16685473 8.06612017 3.14926541 -12.87599182 3.12698364 C-12.87599182 2.46698364 -12.87599182 1.80698364 -12.87599182 1.12698364 C-8.52829973 0.29463649 -4.42395296 0.00140164 0 0 Z " fill="#BB82E1" transform="translate(246.87599182128906,71.87301635742188)"/>
<path d="M0 0 C0.76738747 0.78226943 0.76738747 0.78226943 1.55027771 1.58034229 C-16.54523605 5.38192006 -34.73555221 5.00848641 -53.12425089 4.95038724 C-57.60488247 4.93893293 -62.0855048 4.94318999 -66.56614685 4.94513416 C-74.0649749 4.94601113 -81.56371148 4.93504914 -89.06251526 4.91652393 C-97.73345027 4.89522596 -106.40425287 4.89187933 -115.07520878 4.89808589 C-123.44524135 4.90376971 -131.81522731 4.89815448 -140.18525314 4.88691235 C-143.73945349 4.88226745 -147.29362535 4.88139183 -150.84782791 4.88349819 C-155.01605446 4.88537542 -159.18414514 4.87732126 -163.3523407 4.8614378 C-164.88344129 4.85718326 -166.41455565 4.85635221 -167.94565964 4.859128 C-170.02847383 4.86233266 -172.11087736 4.85331314 -174.19364929 4.8410387 C-175.36047304 4.83898583 -176.52729679 4.83693296 -177.72947884 4.83481789 C-180.44972229 4.58034229 -180.44972229 4.58034229 -182.44972229 2.58034229 C-181.20402718 2.57675976 -181.20402718 2.57675976 -179.9331665 2.57310486 C-159.66532349 2.51380095 -139.39759787 2.43815331 -119.12988281 2.34462738 C-109.32830383 2.29978611 -99.52676024 2.26034495 -89.72511292 2.23390675 C-81.1755219 2.21083172 -72.62604399 2.1773288 -64.07654285 2.13164073 C-59.55552341 2.10783588 -55.03461509 2.08902411 -50.51353455 2.08272839 C-46.24532048 2.07661929 -41.97739026 2.05641338 -37.70928192 2.02606678 C-36.15506726 2.01737877 -34.60081536 2.01354442 -33.04657745 2.01533413 C-24.30203958 2.02221514 -16.14857316 1.4929328 -7.63093472 -0.63816673 C-4.41083929 -1.37905642 -2.92280097 -1.69381523 0 0 Z " fill="#CC8BF2" transform="translate(421.44972229003906,461.41965770721436)"/>
<path d="M0 0 C0 0.99 0 1.98 0 3 C-1.10859375 3.53109375 -2.2171875 4.0621875 -3.359375 4.609375 C-4.82312706 5.32248498 -6.28665714 6.03605071 -7.75 6.75 C-8.47960937 7.09804687 -9.20921875 7.44609375 -9.9609375 7.8046875 C-13.9779466 9.77667379 -16.97171695 11.62313761 -20 15 C-20.763125 15.433125 -21.52625 15.86625 -22.3125 16.3125 C-25.39237533 18.24637521 -27.60321944 20.51462037 -30.1171875 23.12109375 C-31.97646495 24.97651378 -33.91660305 26.63634429 -35.9375 28.3125 C-41.86875674 33.41291922 -46.33970233 39.76510584 -51 46 C-51.44601563 46.5878125 -51.89203125 47.175625 -52.3515625 47.78125 C-52.77179688 48.3484375 -53.19203125 48.915625 -53.625 49.5 C-54.05039063 50.0671875 -54.47578125 50.634375 -54.9140625 51.21875 C-56.0831224 52.93483129 -56.0831224 52.93483129 -56.45703125 54.859375 C-57.19707454 57.77695573 -58.59549221 60.12811373 -60.0625 62.75 C-60.61035156 63.73484375 -61.15820312 64.7196875 -61.72265625 65.734375 C-62.14417969 66.48203125 -62.56570312 67.2296875 -63 68 C-63.66 68 -64.32 68 -65 68 C-64.938125 68.969375 -64.87625 69.93875 -64.8125 70.9375 C-64.80304933 75.56832617 -66.12992297 79.78803751 -68 84 C-68.99 84.99 -68.99 84.99 -70 86 C-70 87.32 -70 88.64 -70 90 C-70.66 90 -71.32 90 -72 90 C-72.33 91.32 -72.66 92.64 -73 94 C-73 93.01 -73 92.02 -73 91 C-73.66 90.67 -74.32 90.34 -75 90 C-74.01 89.505 -74.01 89.505 -73 89 C-72.48685006 87.06011525 -72.06541074 85.09570017 -71.6875 83.125 C-70.24253118 76.5368006 -68.0044177 71.0088354 -65 65 C-64.41459989 63.75096658 -63.83140363 62.50089872 -63.25 61.25 C-57.02439806 48.0680691 -49.11440622 36.55608334 -39 26 C-38.39800781 25.36835937 -37.79601562 24.73671875 -37.17578125 24.0859375 C-29.16731401 16.40816101 -11.53051754 0 0 0 Z " fill="#C183E9" transform="translate(199,84)"/>
<path d="M0 0 C20.38390183 -0.02335501 40.76780094 -0.04099199 61.15171337 -0.05181217 C70.61620213 -0.05696959 80.08068259 -0.06400176 89.54516602 -0.07543945 C97.79390525 -0.08540319 106.04263847 -0.09185747 114.29138356 -0.09408849 C118.6594599 -0.09539272 123.02751901 -0.09846043 127.39558983 -0.10573006 C131.50687796 -0.1125169 135.61814177 -0.11461151 139.72943497 -0.11310768 C141.2383023 -0.11338281 142.74717045 -0.11537213 144.25603294 -0.11920547 C146.3168519 -0.12418431 148.37757917 -0.12298282 150.43840027 -0.12025452 C151.59156329 -0.12117631 152.74472631 -0.1220981 153.93283367 -0.12304783 C156.74154167 -0.01036877 159.26950311 0.35655951 162 1 C162 1.33 162 1.66 162 2 C157.84373632 3.00926479 153.95634906 3.10239579 149.6875 3.0625 C148.43324219 3.05347656 147.17898438 3.04445313 145.88671875 3.03515625 C144.93410156 3.02355469 143.98148438 3.01195313 143 3 C143 2.67 143 2.34 143 2 C72.215 1.505 72.215 1.505 0 1 C0 0.67 0 0.34 0 0 Z " fill="#B574DE" transform="translate(246,72)"/>
<path d="M0 0 C0 18.81 0 37.62 0 57 C-0.66 57 -1.32 57 -2 57 C-2.33 39.18 -2.66 21.36 -3 3 C-9.42930455 7.28189797 -9.42930455 7.28189797 -13 13 C-13.99 12.67 -14.98 12.34 -16 12 C-14.59106853 10.36828877 -13.17254042 8.74486055 -11.75 7.125 C-10.56664062 5.76761719 -10.56664062 5.76761719 -9.359375 4.3828125 C-6.24062357 1.2330801 -4.43928453 0 0 0 Z " fill="#BC81E3" transform="translate(315,270)"/>
<path d="M0 0 C6.58928571 0.91964286 6.58928571 0.91964286 9 4 C6.69 3.67 4.38 3.34 2 3 C2.33 21.48 2.66 39.96 3 59 C2.34 59 1.68 59 1 59 C0.18257039 55.42664606 -0.1221027 52.13785349 -0.11352539 48.4753418 C-0.11344986 47.39459885 -0.11337433 46.3138559 -0.11329651 45.20036316 C-0.10813522 44.0449855 -0.10297394 42.88960785 -0.09765625 41.69921875 C-0.0962413 40.50770706 -0.09482635 39.31619537 -0.09336853 38.08857727 C-0.08777728 34.28819249 -0.07522632 30.48786693 -0.0625 26.6875 C-0.05748387 24.10872481 -0.05292116 21.5299487 -0.04882812 18.95117188 C-0.03781071 12.63409443 -0.02108122 6.31705145 0 0 Z " fill="#A875CA" transform="translate(327,270)"/>
<path d="M0 0 C1.32 0.33 2.64 0.66 4 1 C4 2.32 4 3.64 4 5 C4.598125 5.268125 5.19625 5.53625 5.8125 5.8125 C8.02937309 7.01594539 9.25016307 8.20748412 11 10 C14.65984964 13.36331598 18.28913879 16.65195586 22.5 19.3125 C23.325 19.869375 24.15 20.42625 25 21 C25 21.66 25 22.32 25 23 C26.98 23.66 28.96 24.32 31 25 C31 25.66 31 26.32 31 27 C31.99 27 32.98 27 34 27 C34 27.66 34 28.32 34 29 C35.093125 29.268125 36.18625 29.53625 37.3125 29.8125 C40.61692663 30.87663739 41.94960422 31.34654664 44 34 C41 35 41 35 38.08203125 33.78515625 C37.00308594 33.21667969 35.92414063 32.64820313 34.8125 32.0625 C33.72582031 31.49660156 32.63914063 30.93070312 31.51953125 30.34765625 C30.68808594 29.90292969 29.85664063 29.45820313 29 29 C29 28.34 29 27.68 29 27 C28.01 27 27.02 27 26 27 C26 26.34 26 25.68 26 25 C25.13181641 24.59394531 25.13181641 24.59394531 24.24609375 24.1796875 C20.51822622 22.22174664 17.3260859 19.56469274 14 17 C13.154375 16.38125 12.30875 15.7625 11.4375 15.125 C6.64006854 10.94262386 1.76481911 6.2749124 0 0 Z " fill="#C081E7" transform="translate(152,418)"/>
<path d="M0 0 C0.99 0.33 1.98 0.66 3 1 C2.67 1.66 2.34 2.32 2 3 C1.88097188 4.69463258 1.82285313 6.39371122 1.79467773 8.09228516 C1.77473251 9.15323395 1.75478729 10.21418274 1.73423767 11.30728149 C1.71752518 12.45626923 1.70081268 13.60525696 1.68359375 14.7890625 C1.66281265 15.96262299 1.64203156 17.13618347 1.62062073 18.3453064 C1.55508017 22.10514304 1.49621924 25.86505122 1.4375 29.625 C1.39431908 32.16927832 1.35070493 34.71354933 1.30664062 37.2578125 C1.19939418 43.50513207 1.0976362 49.75252326 1 56 C1.66 56.33 2.32 56.66 3 57 C1.02 57.495 1.02 57.495 -1 58 C-1.0253109 50.22209364 -1.04285035 42.44419786 -1.05493164 34.66625977 C-1.059967 32.01912031 -1.06679563 29.37198365 -1.07543945 26.72485352 C-1.08753979 22.92463493 -1.09323622 19.12445305 -1.09765625 15.32421875 C-1.10281754 14.13664474 -1.10797882 12.94907074 -1.11329651 11.72550964 C-1.11337204 10.62459488 -1.11344757 9.52368011 -1.11352539 8.3894043 C-1.115746 7.41899704 -1.11796661 6.44858978 -1.12025452 5.44877625 C-1 3 -1 3 0 0 Z " fill="#A976C9" transform="translate(328,199)"/>
<path d="M0 0 C0.99 0 1.98 0 3 0 C4.03233386 2.56915667 5.0537237 5.14044622 6.04296875 7.7265625 C8.57042502 14.12715141 11.5473497 19.77657487 15.3515625 25.5078125 C17.39316217 28.59440158 19.2034894 31.76628092 21 35 C20.01 35 19.02 35 18 35 C16.17578125 32.8828125 16.17578125 32.8828125 14.3125 30.125 C13.68988281 29.22007812 13.06726563 28.31515625 12.42578125 27.3828125 C11 25 11 25 11 23 C10.34 22.67 9.68 22.34 9 22 C7.94677734 20.18994141 7.94677734 20.18994141 6.8359375 17.8515625 C6.43632812 17.01109375 6.03671875 16.170625 5.625 15.3046875 C5.2125 14.42039062 4.8 13.53609375 4.375 12.625 C3.95476562 11.7484375 3.53453125 10.871875 3.1015625 9.96875 C0 3.38296469 0 3.38296469 0 0 Z " fill="#BE82E7" transform="translate(131,382)"/>
<path d="M0 0 C1.45833333 0.4375 2.91666667 0.875 4.375 1.3125 C5.28894531 1.58320313 6.20289063 1.85390625 7.14453125 2.1328125 C8.96253039 2.68492715 10.77365433 3.26062407 12.57421875 3.8671875 C21.91471222 6.94647106 30.33066254 6.01211757 40 5 C40 4.34 40 3.68 40 3 C40.99 3 41.98 3 43 3 C43 3.66 43 4.32 43 5 C37.08531802 7.53582717 32.23235867 8.54925219 25.8125 8.5 C24.9875 8.49718018 24.1625 8.49436035 23.3125 8.49145508 C15.4714135 8.28643445 7.16776763 6.77041691 1.15625 1.33203125 C0.7746875 0.89246094 0.393125 0.45289063 0 0 Z " fill="#2E1345" transform="translate(333,354)"/>
<path d="M0 0 C1.32 2.31 2.64 4.62 4 7 C3.01 7 2.02 7 1 7 C0.34 5.68 -0.32 4.36 -1 3 C-3.80828805 3.08259671 -5.52400492 3.55775518 -7.59765625 5.484375 C-11.5433205 10.02140416 -14.30752619 13.54410969 -14.125 19.75 C-14.10695312 20.54921875 -14.08890625 21.3484375 -14.0703125 22.171875 C-14.04710937 22.77515625 -14.02390625 23.3784375 -14 24 C-14.66 24.33 -15.32 24.66 -16 25 C-16.52872766 17.9502979 -16.72803037 12.47271985 -12.43359375 6.62109375 C-8.7922842 2.50353663 -5.63060539 0 0 0 Z " fill="#B57EDA" transform="translate(264,217)"/>
<path d="M0 0 C9.15244471 -0.30659554 17.34796755 -0.49409003 26 3 C26 3.66 26 4.32 26 5 C24.824375 4.67 23.64875 4.34 22.4375 4 C13.28149979 1.9685578 3.90184129 2.11662724 -5 5 C-4.67 4.01 -4.34 3.02 -4 2 C-2.68 2 -1.36 2 0 2 C0 1.34 0 0.68 0 0 Z " fill="#B77FDA" transform="translate(284,171)"/>
<path d="M0 0 C3.60831131 3.47395929 6.72642944 7.04967398 9.75 11.0625 C10.52859375 12.08472656 11.3071875 13.10695312 12.109375 14.16015625 C13.73602867 16.6034976 14.58905379 18.14392386 15 21 C11.91371864 19.97123955 11.00415838 19.43984498 9 17 C8.58814453 15.87271484 8.58814453 15.87271484 8.16796875 14.72265625 C6.81516889 11.56913952 5.05793997 9.32815319 2.875 6.6875 C2.15054687 5.80449219 1.42609375 4.92148438 0.6796875 4.01171875 C0.12539063 3.34785156 -0.42890625 2.68398437 -1 2 C-0.67 1.34 -0.34 0.68 0 0 Z " fill="#C283EB" transform="translate(486,115)"/>
<path d="M0 0 C5.39879382 1.4538709 10.7020594 3.2186825 16 5 C15.67 5.66 15.34 6.32 15 7 C13.58318366 6.68817931 12.16655349 6.37551263 10.75 6.0625 C9.96109375 5.88847656 9.1721875 5.71445313 8.359375 5.53515625 C4.80965264 4.73000399 1.54513186 3.8530393 -1.8125 2.4375 C-5.73796372 0.92034141 -8.81999106 0.73874944 -13 1 C-8.5337841 -1.97747726 -5.13780433 -1.0086487 0 0 Z " fill="#BD7DE6" transform="translate(421,75)"/>
<path d="M0 0 C1.12019531 0.09925781 2.24039063 0.19851562 3.39453125 0.30078125 C4.54308594 0.40777344 5.69164062 0.51476562 6.875 0.625 C9.14567288 0.81443322 11.41649774 1.00205721 13.6875 1.1875 C15.41670273 1.33290515 17.14588373 1.47857033 18.875 1.625 C18.875 1.955 18.875 2.285 18.875 2.625 C8.645 2.625 -1.585 2.625 -12.125 2.625 C-12.125 1.965 -12.125 1.305 -12.125 0.625 C-7.91543598 -0.2169128 -4.26942485 -0.39591158 0 0 Z " fill="#BD80E6" transform="translate(246.125,72.375)"/>
<path d="M0 0 C0.9178125 -0.00515625 1.835625 -0.0103125 2.78125 -0.015625 C5.6778282 0.26737402 7.86375653 1.04649755 10.5 2.25 C7.13242731 3.29483162 4.19582924 3.26010896 0.6875 3.125 C-4.59043719 3.07988943 -7.94910074 3.57882 -12.5 6.25 C-13.49 7.735 -13.49 7.735 -14.5 9.25 C-15.49 8.92 -16.48 8.59 -17.5 8.25 C-16.44512267 7.28328244 -15.38066719 6.32701255 -14.3125 5.375 C-13.72082031 4.84132812 -13.12914062 4.30765625 -12.51953125 3.7578125 C-8.52416073 0.77480859 -4.93192099 -0.02770742 0 0 Z " fill="#B078D6" transform="translate(348.5,184.75)"/>
<path d="M0 0 C1.98 0 3.96 0 6 0 C5 2 5 2 3.09375 2.8515625 C-2.9286449 4.64739712 -8.56504193 5.2894916 -14.8125 5.3125 C-15.88757813 5.32047607 -15.88757813 5.32047607 -16.984375 5.32861328 C-21.34936108 5.27069796 -24.94293928 4.59862204 -29 3 C-29 2.67 -29 2.34 -29 2 C-28.10861328 2.10828125 -28.10861328 2.10828125 -27.19921875 2.21875 C-18.02096206 3.24648636 -9.14170654 3.37988023 0 2 C0 1.34 0 0.68 0 0 Z " fill="#2A1141" transform="translate(298,357)"/>
<path d="M0 0 C0.66 0 1.32 0 2 0 C1.96519531 1.73636719 1.96519531 1.73636719 1.9296875 3.5078125 C1.91091852 5.04686851 1.89271954 6.58593155 1.875 8.125 C1.85824219 8.88554687 1.84148437 9.64609375 1.82421875 10.4296875 C1.78453754 15.03270731 2.24092423 18.66464004 4 23 C3.34 23.33 2.68 23.66 2 24 C-1.51362397 16.53354907 -2.65529128 7.96587383 0 0 Z " fill="#B57DD8" transform="translate(240,276)"/>
<path d="M0 0 C4.54071365 1.46583335 7.76266969 4.04531733 11.3125 7.125 C12.13717773 7.82689453 12.13717773 7.82689453 12.97851562 8.54296875 C14.32396409 9.68952483 15.662679 10.84397451 17 12 C16.34 12.66 15.68 13.32 15 14 C12.49216387 12.05153583 9.99516234 10.08965936 7.5 8.125 C6.78457031 7.56941406 6.06914062 7.01382813 5.33203125 6.44140625 C4.65527344 5.90644531 3.97851562 5.37148437 3.28125 4.8203125 C2.65283203 4.32805176 2.02441406 3.83579102 1.37695312 3.32861328 C0.92255859 2.8901709 0.46816406 2.45172852 0 2 C0 1.34 0 0.68 0 0 Z " fill="#C181E9" transform="translate(460,93)"/>
<path d="M0 0 C0.84933105 0.24447876 0.84933105 0.24447876 1.71582031 0.49389648 C4.07601117 1.01684172 6.13282157 1.11396742 8.546875 1.09765625 C9.39121094 1.09443359 10.23554688 1.09121094 11.10546875 1.08789062 C12.41451172 1.07532227 12.41451172 1.07532227 13.75 1.0625 C14.63816406 1.05798828 15.52632813 1.05347656 16.44140625 1.04882812 C18.62767329 1.037074 20.81380179 1.02064249 23 1 C23 1.66 23 2.32 23 3 C14.60953785 5.50241854 8.33119989 4.19242102 0 2 C0 1.34 0 0.68 0 0 Z " fill="#AF74D5" transform="translate(271,360)"/>
<path d="M0 0 C0.66 0.66 1.32 1.32 2 2 C1.67 2.66 1.34 3.32 1 4 C-2.16015625 4.4140625 -2.16015625 4.4140625 -6.0625 4.625 C-7.35285156 4.69976562 -8.64320313 4.77453125 -9.97265625 4.8515625 C-10.97167969 4.90054687 -11.97070312 4.94953125 -13 5 C-12.67 7.97 -12.34 10.94 -12 14 C-14.56616632 10.15075052 -14.55097676 7.5650696 -15 3 C-13.62714844 2.92652344 -13.62714844 2.92652344 -12.2265625 2.8515625 C-11.03804688 2.77679688 -9.84953125 2.70203125 -8.625 2.625 C-7.44164062 2.55539062 -6.25828125 2.48578125 -5.0390625 2.4140625 C-1.89437681 2.29782654 -1.89437681 2.29782654 0 0 Z " fill="#AA74CE" transform="translate(274,323)"/>
<path d="M0 0 C0.33 0.66 0.66 1.32 1 2 C0.57847656 2.44988281 0.15695312 2.89976562 -0.27734375 3.36328125 C-4.56510754 8.39762038 -5.68667937 12.08631587 -5.796875 18.6796875 C-6 21 -6 21 -8 23 C-8.62626649 11.27489964 -8.62626649 11.27489964 -6.25 6.4375 C-2.15384615 2 -2.15384615 2 0 0 Z " fill="#B980DE" transform="translate(282,188)"/>
<path d="M0 0 C0.99 0 1.98 0 3 0 C3.433125 1.11375 3.433125 1.11375 3.875 2.25 C4.89272461 4.91735822 4.89272461 4.91735822 6.125 6.9375 C7.29033839 9.68436906 7.13409042 12.05001069 7 15 C4.47138427 12.73946101 3.16143472 10.60099936 1.8125 7.5 C1.46832031 6.7265625 1.12414062 5.953125 0.76953125 5.15625 C0 3 0 3 0 0 Z " fill="#B97BE2" transform="translate(131,382)"/>
<path d="M0 0 C0 0.99 0 1.98 0 3 C-2.98618257 5.61515388 -5.35792521 6.1929287 -9.20703125 6.07421875 C-10.74350591 5.96211545 -12.27880574 5.83277029 -13.8125 5.6875 C-14.60076172 5.62626953 -15.38902344 5.56503906 -16.20117188 5.50195312 C-18.13534873 5.34956343 -20.06790219 5.17680719 -22 5 C-22 4.34 -22 3.68 -22 3 C-21.0821875 3.03480469 -20.164375 3.06960938 -19.21875 3.10546875 C-12.03762333 3.26387596 -6.50788704 3.12378578 0 0 Z " fill="#2C1341" transform="translate(372,346)"/>
<path d="M0 0 C5.96652354 1.57013777 10.82909025 4.75029782 16 8 C15.67 8.66 15.34 9.32 15 10 C11.34426939 8.62992438 8.04532353 6.98982135 4.6875 5 C3.80449219 4.484375 2.92148437 3.96875 2.01171875 3.4375 C1.34785156 2.963125 0.68398438 2.48875 0 2 C0 1.34 0 0.68 0 0 Z " fill="#C183E9" transform="translate(444,84)"/>
<path d="M0 0 C0.66 0.33 1.32 0.66 2 1 C3.54769708 8.38132452 2.34620342 13.90836821 0 21 C-0.66 21 -1.32 21 -2 21 C-1.84660156 20.34644531 -1.69320313 19.69289063 -1.53515625 19.01953125 C-0.86620406 15.24507841 -0.64592703 11.51094004 -0.4375 7.6875 C-0.39431641 6.94693359 -0.35113281 6.20636719 -0.30664062 5.44335938 C-0.20129568 3.62908536 -0.10021684 1.8145645 0 0 Z " fill="#B77CD9" transform="translate(416,278)"/>
<path d="M0 0 C0.33 0.66 0.66 1.32 1 2 C-1.475 1.505 -1.475 1.505 -4 1 C-4 1.66 -4 2.32 -4 3 C-12.42857143 5.42857143 -12.42857143 5.42857143 -17 4 C-11.77468437 0.51645625 -6.1868663 -0.30934332 0 0 Z " fill="#BE7FE8" transform="translate(232,74)"/>
<path d="M0 0 C0.66 0.66 1.32 1.32 2 2 C1.34 2 0.68 2 0 2 C-0.2475 2.53625 -0.495 3.0725 -0.75 3.625 C-4.98850575 11.67816092 -4.98850575 11.67816092 -8.75 12.875 C-9.4925 12.91625 -10.235 12.9575 -11 13 C-9.91246426 9.73739277 -9.22172511 9.12782778 -6.625 7.0625 C-4.00525755 4.90538147 -1.87310635 2.86475088 0 0 Z " fill="#BA7FE1" transform="translate(321,343)"/>
<path d="M0 0 C0.99 0.33 1.98 0.66 3 1 C4.1875 3.5625 4.1875 3.5625 5 6 C2.69 8.64 0.38 11.28 -2 14 C-2.33 13.01 -2.66 12.02 -3 11 C-2.505 10.67 -2.01 10.34 -1.5 10 C0.88179561 6.82427253 0.19168226 3.89753934 0 0 Z " fill="#B67BD9" transform="translate(236,249)"/>
<path d="M0 0 C0.87269531 0.02578125 1.74539063 0.0515625 2.64453125 0.078125 C5.18508014 0.25871329 7.59913979 0.59310394 10.0625 1.25 C10.0625 1.58 10.0625 1.91 10.0625 2.25 C5.90623632 3.25926479 2.01884906 3.35239579 -2.25 3.3125 C-3.50425781 3.30347656 -4.75851562 3.29445313 -6.05078125 3.28515625 C-7.00339844 3.27355469 -7.95601563 3.26195313 -8.9375 3.25 C-5.88558835 0.57164797 -4.04698599 -0.12471451 0 0 Z " fill="#BB7AE5" transform="translate(397.9375,71.75)"/>
<path d="M0 0 C0.33 0 0.66 0 1 0 C1.48339973 6.40504648 1.48339973 6.40504648 -0.625 9 C-3.80165405 10.33753855 -5.72894395 9.94497175 -9 9 C-9.33 8.34 -9.66 7.68 -10 7 C-7.03 7 -4.06 7 -1 7 C-0.67 4.69 -0.34 2.38 0 0 Z " fill="#34184D" transform="translate(352,274)"/>
<path d="M0 0 C0.66 0 1.32 0 2 0 C0.54694849 4.11697928 -1.32645794 7.54012204 -4 11 C-6.1328125 11.671875 -6.1328125 11.671875 -8 12 C-7.59007812 11.46890625 -7.18015625 10.9378125 -6.7578125 10.390625 C-6.21898437 9.68421875 -5.68015625 8.9778125 -5.125 8.25 C-4.59132813 7.55390625 -4.05765625 6.8578125 -3.5078125 6.140625 C-2.10761086 4.15277397 -1.02144735 2.20156614 0 0 Z " fill="#2A113E" transform="translate(382,334)"/>
<path d="M0 0 C1.49341969 2.98683937 0.40648676 4.95160978 -0.4375 8.125 C-0.72496094 9.22070312 -1.01242187 10.31640625 -1.30859375 11.4453125 C-1.53675781 12.28835937 -1.76492188 13.13140625 -2 14 C-2.66 14 -3.32 14 -4 14 C-3.66009167 8.62007164 -3.31442207 4.46726453 0 0 Z " fill="#2F1646" transform="translate(265,190)"/>
<path d="M0 0 C2.4375 0.375 2.4375 0.375 5 1 C5.33 1.66 5.66 2.32 6 3 C6.825 3.165 7.65 3.33 8.5 3.5 C9.7375 3.7475 9.7375 3.7475 11 4 C11.33 4.66 11.66 5.32 12 6 C4 5.07692308 4 5.07692308 1 3 C0.67 2.01 0.34 1.02 0 0 Z " fill="#BF7EE9" transform="translate(201,454)"/>
<path d="M0 0 C0.66 0.33 1.32 0.66 2 1 C1.58525633 6.28798182 0.64775386 9.11690718 -3 13 C-3.66 12.67 -4.32 12.34 -5 12 C-4.360625 10.948125 -3.72125 9.89625 -3.0625 8.8125 C-1.38245548 5.89171588 -0.41003948 3.3828257 0 0 Z " fill="#2E1444" transform="translate(403,290)"/>
<path d="M0 0 C-2.6855594 2.6855594 -5.37621328 3.06049974 -9 4 C-9.66 3.34 -10.32 2.68 -11 2 C-3.57142857 -1.57142857 -3.57142857 -1.57142857 0 0 Z " fill="#BF80E8" transform="translate(210,81)"/>
<path d="M0 0 C0.66 0.99 1.32 1.98 2 3 C0.89300099 6.21029714 -0.01603825 7.00968977 -3 8.8125 C-3.99 9.204375 -4.98 9.59625 -6 10 C-6.66 9.67 -7.32 9.34 -8 9 C-8 8.34 -8 7.68 -8 7 C-5.69 6.34 -3.38 5.68 -1 5 C-0.67 3.35 -0.34 1.7 0 0 Z " fill="#AC72D1" transform="translate(277,217)"/>
<path d="M0 0 C0.66 0.99 1.32 1.98 2 3 C-1.63 4.32 -5.26 5.64 -9 7 C-6.45170261 1.90340522 -5.10645833 1.89128086 0 0 Z " fill="#B87EE0" transform="translate(259,202)"/>
<path d="M0 0 C-0.9075 0.598125 -1.815 1.19625 -2.75 1.8125 C-5.22901481 3.48106766 -7.63317911 5.17936855 -10 7 C-9.38722388 4.03824877 -8.74627478 2.61941217 -7 0 C-4.02096037 -1.15317663 -3.13440869 -1.0448029 0 0 Z " fill="#281240" transform="translate(312,271)"/>
<path d="M0 0 C0.33 0.66 0.66 1.32 1 2 C-0.98 4.97 -2.96 7.94 -5 11 C-5.66 10.67 -6.32 10.34 -7 10 C-6.02223933 8.51990357 -5.0427506 7.04094856 -4.0625 5.5625 C-3.51722656 4.73878906 -2.97195312 3.91507812 -2.41015625 3.06640625 C-1 1 -1 1 0 0 Z " fill="#B47DDB" transform="translate(248,264)"/>
<path d="M0 0 C0.66 0.33 1.32 0.66 2 1 C1.67 3.64 1.34 6.28 1 9 C0.01 9.33 -0.98 9.66 -2 10 C-1.34 6.7 -0.68 3.4 0 0 Z " fill="#AD73D4" transform="translate(395,331)"/>
<path d="M0 0 C-0.33 4.95 -0.66 9.9 -1 15 C-1.33 15 -1.66 15 -2 15 C-2 10.71 -2 6.42 -2 2 C-2.99 1.67 -3.98 1.34 -5 1 C-3 0 -3 0 0 0 Z " fill="#B377DE" transform="translate(315,270)"/>
<path d="M0 0 C0.33 0.99 0.66 1.98 1 3 C-0.75 5.0625 -0.75 5.0625 -3 7 C-4.32 6.67 -5.64 6.34 -7 6 C-4.69 4.02 -2.38 2.04 0 0 Z " fill="#B579DB" transform="translate(405,313)"/>
<path d="M0 0 C0 3.34419152 -0.47519394 4.06840321 -2.375 6.6875 C-2.81585938 7.31011719 -3.25671875 7.93273437 -3.7109375 8.57421875 C-4.13632813 9.04472656 -4.56171875 9.51523437 -5 10 C-5.66 10 -6.32 10 -7 10 C-5.33248852 6.05860922 -2.77289351 3.2107188 0 0 Z " fill="#2C1142" transform="translate(239,256)"/>
<path d="M0 0 C0.99 0.33 1.98 0.66 3 1 C1.71283353 2.00578589 0.42011342 3.00446798 -0.875 4 C-1.95394531 4.8353125 -1.95394531 4.8353125 -3.0546875 5.6875 C-5 7 -5 7 -7 7 C-7 6.34 -7 5.68 -7 5 C-5.03277992 3.61876037 -3.03131672 2.28511874 -1 1 C-0.67 0.67 -0.34 0.34 0 0 Z " fill="#B37BD7" transform="translate(393,305)"/>
<path d="M0 0 C0.66 0 1.32 0 2 0 C1.25 6.75 1.25 6.75 -1 9 C-1.33 7.35 -1.66 5.7 -2 4 C-1.34 4 -0.68 4 0 4 C0 2.68 0 1.36 0 0 Z " fill="#C68AEB" transform="translate(127,174)"/>
<path d="M0 0 C0.66 0.33 1.32 0.66 2 1 C-0.97 4.96 -0.97 4.96 -4 9 C-4.33 8.01 -4.66 7.02 -5 6 C-4.34 5.01 -3.68 4.02 -3 3 C-2.34 3 -1.68 3 -1 3 C-0.67 2.01 -0.34 1.02 0 0 Z " fill="#2D1344" transform="translate(390,343)"/>
<path d="M0 0 C0.66 0 1.32 0 2 0 C0.25 5.75 0.25 5.75 -2 8 C-2.99 7.67 -3.98 7.34 -5 7 C-4.360625 6.21625 -3.72125 5.4325 -3.0625 4.625 C-1.01857687 2.20460719 -1.01857687 2.20460719 0 0 Z " fill="#2D1542" transform="translate(393,244)"/>
<path d="M0 0 C0.66 0.33 1.32 0.66 2 1 C0.02 3.31 -1.96 5.62 -4 8 C-4 4.87099787 -3.57548683 3.62581138 -2 1 C-1.34 0.67 -0.68 0.34 0 0 Z " fill="#BC7FE6" transform="translate(257,219)"/>
<path d="M0 0 C2 2 2 2 2 5 C2.99 5.33 3.98 5.66 5 6 C5 6.66 5 7.32 5 8 C2.525 7.01 2.525 7.01 0 6 C0 4.02 0 2.04 0 0 Z " fill="#B280D4" transform="translate(381,198)"/>
<path d="M0 0 C0 0.99 0 1.98 0 3 C-2.53184488 5.35723489 -3.47190093 6 -7 6 C-7 5.34 -7 4.68 -7 4 C-4.69 2.68 -2.38 1.36 0 0 Z " fill="#2A1141" transform="translate(304,343)"/>
<path d="M0 0 C0.66 0.66 1.32 1.32 2 2 C1.67 2.66 1.34 3.32 1 4 C-2.3 4 -5.6 4 -9 4 C-9 3.67 -9 3.34 -9 3 C-7.88625 2.87625 -6.7725 2.7525 -5.625 2.625 C-1.96896323 2.3534187 -1.96896323 2.3534187 0 0 Z " fill="#9B67BE" transform="translate(274,323)"/>
<path d="" fill="#BF78EB" transform="translate(0,0)"/>
<path d="M0 0 C2 1 2 1 2 1 Z " fill="#BC76E7" transform="translate(384,470)"/>
<path d="" fill="#BD78E8" transform="translate(0,0)"/>
<path d="M0 0 C2 1 2 1 2 1 Z " fill="#BF77EC" transform="translate(121,353)"/>
<path d="M0 0 C2 1 2 1 2 1 Z " fill="#C07AEC" transform="translate(120,239)"/>
<path d="" fill="#C37CF0" transform="translate(0,0)"/>
<path d="" fill="#BD79E9" transform="translate(0,0)"/>
<path d="" fill="#B471DD" transform="translate(0,0)"/>
<path d="" fill="#B472DD" transform="translate(0,0)"/>
<path d="" fill="#BF78EB" transform="translate(0,0)"/>
<path d="" fill="#BF78EB" transform="translate(0,0)"/>
<path d="" fill="#B572DE" transform="translate(0,0)"/>
<path d="" fill="#C786EF" transform="translate(0,0)"/>
<path d="" fill="#B471DD" transform="translate(0,0)"/>
<path d="" fill="#C282EF" transform="translate(0,0)"/>
<path d="" fill="#C483ED" transform="translate(0,0)"/>
<path d="" fill="#BC77E7" transform="translate(0,0)"/>
<path d="" fill="#C683F4" transform="translate(0,0)"/>
<path d="" fill="#BC76E7" transform="translate(0,0)"/>
<path d="" fill="#BF7EE6" transform="translate(0,0)"/>
<path d="" fill="#C483F0" transform="translate(0,0)"/>
<path d="" fill="#C177EF" transform="translate(0,0)"/>
<path d="" fill="#B471DD" transform="translate(0,0)"/>
<path d="" fill="#C480EF" transform="translate(0,0)"/>
<path d="" fill="#BC77E7" transform="translate(0,0)"/>
<path d="" fill="#C181E8" transform="translate(0,0)"/>
<path d="" fill="#C178EC" transform="translate(0,0)"/>
<path d="" fill="#BC77E7" transform="translate(0,0)"/>
<path d="" fill="#BC77E7" transform="translate(0,0)"/>
<path d="" fill="#BF76EC" transform="translate(0,0)"/>
<path d="" fill="#C284E8" transform="translate(0,0)"/>
<path d="" fill="#C280ED" transform="translate(0,0)"/>
<path d="" fill="#BF79EB" transform="translate(0,0)"/>
<path d="" fill="#C484EF" transform="translate(0,0)"/>
<path d="" fill="#BF74EC" transform="translate(0,0)"/>
<path d="" fill="#B472DD" transform="translate(0,0)"/>
<path d="" fill="#C683F0" transform="translate(0,0)"/>
<path d="" fill="#B472DD" transform="translate(0,0)"/>
<path d="" fill="#B472DD" transform="translate(0,0)"/>
<path d="" fill="#C381EC" transform="translate(0,0)"/>
<path d="" fill="#C685F2" transform="translate(0,0)"/>
<path d="" fill="#C385ED" transform="translate(0,0)"/>
<path d="" fill="#C382EC" transform="translate(0,0)"/>
<path d="" fill="#BB7FE4" transform="translate(0,0)"/>
<path d="" fill="#C281E9" transform="translate(0,0)"/>
<path d="" fill="#C37BEF" transform="translate(0,0)"/>
<path d="" fill="#BC78E7" transform="translate(0,0)"/>
<path d="" fill="#B473DD" transform="translate(0,0)"/>
<path d="" fill="#BC78E7" transform="translate(0,0)"/>
<path d="" fill="#BC78E7" transform="translate(0,0)"/>
<path d="" fill="#C684EF" transform="translate(0,0)"/>
<path d="" fill="#C381EC" transform="translate(0,0)"/>
<path d="" fill="#BD78E7" transform="translate(0,0)"/>
<path d="" fill="#C484ED" transform="translate(0,0)"/>
<path d="" fill="#C683F3" transform="translate(0,0)"/>
<path d="" fill="#C079EB" transform="translate(0,0)"/>
<path d="" fill="#C079EB" transform="translate(0,0)"/>
<path d="" fill="#C77FF1" transform="translate(0,0)"/>
<path d="" fill="#C479F2" transform="translate(0,0)"/>
<path d="" fill="#C47BF1" transform="translate(0,0)"/>
<path d="" fill="#C17BED" transform="translate(0,0)"/>
<path d="" fill="#C278F0" transform="translate(0,0)"/>
<path d="" fill="#BD78E8" transform="translate(0,0)"/>
<path d="" fill="#C57CF1" transform="translate(0,0)"/>
<path d="" fill="#B573DE" transform="translate(0,0)"/>
<path d="" fill="#B574DE" transform="translate(0,0)"/>
<path d="" fill="#B574DE" transform="translate(0,0)"/>
<path d="" fill="#C07BEB" transform="translate(0,0)"/>
<path d="" fill="#C27BEE" transform="translate(0,0)"/>
<path d="" fill="#C07BEB" transform="translate(0,0)"/>
<path d="" fill="#CA87F4" transform="translate(0,0)"/>
<path d="" fill="#C17BED" transform="translate(0,0)"/>
<path d="" fill="#C37CEF" transform="translate(0,0)"/>
<path d="" fill="#C07BEB" transform="translate(0,0)"/>
<path d="" fill="#C57CF3" transform="translate(0,0)"/>
<path d="" fill="#C17BED" transform="translate(0,0)"/>
<path d="" fill="#C07BEB" transform="translate(0,0)"/>
<path d="" fill="#BD79E8" transform="translate(0,0)"/>
<path d="" fill="#B574DF" transform="translate(0,0)"/>
<path d="" fill="#C178F0" transform="translate(0,0)"/>
<path d="" fill="#BD79E9" transform="translate(0,0)"/>
<path d="" fill="#BF77ED" transform="translate(0,0)"/>
<path d="" fill="#C27BEE" transform="translate(0,0)"/>
<path d="" fill="#C57DF2" transform="translate(0,0)"/>
<path d="" fill="#C27BEE" transform="translate(0,0)"/>
<path d="" fill="#C684EF" transform="translate(0,0)"/>
<path d="" fill="#B574DE" transform="translate(0,0)"/>
<path d="" fill="#B574DF" transform="translate(0,0)"/>
<path d="" fill="#B574DE" transform="translate(0,0)"/>
<path d="" fill="#C486EB" transform="translate(0,0)"/>
<path d="" fill="#C684EF" transform="translate(0,0)"/>
<path d="" fill="#BB74EA" transform="translate(0,0)"/>
<path d="" fill="#BF7BEE" transform="translate(0,0)"/>
<path d="" fill="#B574DE" transform="translate(0,0)"/>
<path d="" fill="#C483ED" transform="translate(0,0)"/>
<path d="" fill="#C27CEF" transform="translate(0,0)"/>
<path d="" fill="#C484EE" transform="translate(0,0)"/>
<path d="" fill="#C37DF0" transform="translate(0,0)"/>
<path d="" fill="#C282E9" transform="translate(0,0)"/>
<path d="" fill="#C47BF2" transform="translate(0,0)"/>
<path d="" fill="#C484EC" transform="translate(0,0)"/>
<path d="" fill="#C07BED" transform="translate(0,0)"/>
<path d="" fill="#C785F6" transform="translate(0,0)"/>
<path d="" fill="#B573DE" transform="translate(0,0)"/>
<path d="" fill="#B574DE" transform="translate(0,0)"/>
<path d="" fill="#C07DEB" transform="translate(0,0)"/>
<path d="" fill="#BC79E7" transform="translate(0,0)"/>
<path d="" fill="#BC79E7" transform="translate(0,0)"/>
<path d="" fill="#B473DE" transform="translate(0,0)"/>
<path d="" fill="#BE79EB" transform="translate(0,0)"/>
<path d="" fill="#BC78E8" transform="translate(0,0)"/>
<path d="" fill="#B473DE" transform="translate(0,0)"/>
<path d="" fill="#B473DE" transform="translate(0,0)"/>
<path d="" fill="#B473DE" transform="translate(0,0)"/>
</svg>
